{"extensionsUsed" : ["KHR_materials_specular", "KHR_materials_ior"], "accessors" : [{"bufferView" : 0, "byteOffset" : 0, "componentType" : 5123, "count" : 1734, "type" : "SCALAR", "max" : [1384], "min" : [0]}, {"bufferView" : 1, "byteOffset" : 0, "componentType" : 5126, "count" : 1385, "type" : "VEC3", "max" : [0.007519212085753679, 0.00813370756804943, 0.2530039846897125], "min" : [-0.03821182623505592, -0.0287939440459013, -0.016583938151597977], "name" : "POSITION"}, {"bufferView" : 1, "byteOffset" : 12, "componentType" : 5126, "count" : 1385, "type" : "VEC2", "max" : [0.728243350982666, 0.702966034412384], "min" : [0.3906298279762268, 0.3967844247817993], "name" : "TEXCOORD_0"}, {"bufferView" : 1, "byteOffset" : 20, "componentType" : 5126, "count" : 1385, "type" : "VEC3", "max" : [1.0000044107437134, 1.0000044107437134, 1.0000044107437134], "min" : [-1.0000044107437134, -1.0000044107437134, -0.9987511038780212], "name" : "NORMAL"}, {"bufferView" : 0, "byteOffset" : 3468, "componentType" : 5123, "count" : 174, "type" : "SCALAR", "max" : [144], "min" : [0]}, {"bufferView" : 2, "byteOffset" : 0, "componentType" : 5126, "count" : 145, "type" : "VEC3", "max" : [0.005297364201396704, 0.0059118629433214664, -0.016583938151597977], "min" : [-0.005609523504972458, -0.00499502569437027, -0.037606894969940186], "name" : "POSITION"}, {"bufferView" : 2, "byteOffset" : 12, "componentType" : 5126, "count" : 145, "type" : "VEC2", "max" : [0.395698606967926, 0.581028938293457], "min" : [0.2878831923007965, 0.46053546667099], "name" : "TEXCOORD_0"}, {"bufferView" : 2, "byteOffset" : 20, "componentType" : 5126, "count" : 145, "type" : "VEC3", "max" : [0.9999992847442627, 0.9999992847442627, 0.003200013656169176], "min" : [-0.9999992847442627, -0.9999992847442627, -1.0000044107437134], "name" : "NORMAL"}, {"bufferView" : 0, "byteOffset" : 3816, "componentType" : 5123, "count" : 8820, "type" : "SCALAR", "max" : [7234], "min" : [0]}, {"bufferView" : 3, "byteOffset" : 0, "componentType" : 5126, "count" : 7235, "type" : "VEC3", "max" : [0.16048434376716614, 0.34127330780029297, 0.16048434376716614], "min" : [-0.16048434376716614, 0.00240328349173069, -0.16048434376716614], "name" : "POSITION"}, {"bufferView" : 3, "byteOffset" : 12, "componentType" : 5126, "count" : 7235, "type" : "VEC2", "max" : [0.9896183609962463, 0.9999833106994629], "min" : [0.015935495495796204, 0.01544189453125], "name" : "TEXCOORD_0"}, {"bufferView" : 3, "byteOffset" : 20, "componentType" : 5126, "count" : 7235, "type" : "VEC3", "max" : [1.0000044107437134, 1.0000044107437134, 1.0000044107437134], "min" : [-1.0000044107437134, -1.0000044107437134, -1.0000044107437134], "name" : "NORMAL"}], "asset" : {"generator" : "Aspose.3D 23.6.0", "version" : "2.0"}, "buffers" : [{"uri" : "data:application/octet-stream;base64,", "byteLength" : 364768}], "bufferViews" : [{"buffer" : 0, "byteOffset" : 0, "byteLength" : 21456, "target" : 34963}, {"buffer" : 0, "byteOffset" : 21460, "byteLength" : 55488, "byteStride" : 32, "target" : 34962}, {"buffer" : 0, "byteOffset" : 76952, "byteLength" : 5568, "byteStride" : 32, "target" : 34962}, {"buffer" : 0, "byteOffset" : 82524, "byteLength" : 282240, "byteStride" : 32, "target" : 34962}], "materials" : [{"name" : "M_cable.002", "extensions" : {"KHR_materials_specular" : {"specularColorFactor" : [2.371357614441398, 2.371357614441398, 2.371357614441398]}, "KHR_materials_ior" : {"ior" : 1.4500000476837158}}, "pbrMetallicRoughness" : {"baseColorFactor" : [0.029761485755443573, 0.029761485755443573, 0.029761485755443573, 1], "metallicFactor" : 0, "roughnessFactor" : 0.5}, "emissiveFactor" : [0, 0, 0], "alphaMode" : "OPAQUE", "doubleSided" : true}, {"name" : "M_Metal.002", "extensions" : {"KHR_materials_specular" : {"specularColorFactor" : [2.371357614441398, 2.371357614441398, 2.371357614441398]}, "KHR_materials_ior" : {"ior" : 1.4500000476837158}}, "pbrMetallicRoughness" : {"baseColorFactor" : [0.30683633685112, 0.30683633685112, 0.30683633685112, 1], "metallicFactor" : 0.8728520274162292, "roughnessFactor" : 0.24570447206497192}, "emissiveFactor" : [0, 0, 0], "alphaMode" : "OPAQUE", "doubleSided" : true}, {"name" : "M_router.002", "extensions" : {"KHR_materials_specular" : {"specularColorFactor" : [2.371357614441398, 2.371357614441398, 2.371357614441398]}, "KHR_materials_ior" : {"ior" : 1.4500000476837158}}, "pbrMetallicRoughness" : {"baseColorFactor" : [0.004094369243830442, 0.004094369243830442, 0.004094369243830442, 1], "metallicFactor" : 0, "roughnessFactor" : 0.5}, "emissiveFactor" : [0, 0, 0], "alphaMode" : "OPAQUE", "doubleSided" : true}], "meshes" : [{"primitives" : [{"attributes" : {"POSITION" : 1, "TEXCOORD_0" : 2, "NORMAL" : 3}, "indices" : 0, "material" : 0, "mode" : 4}, {"attributes" : {"POSITION" : 5, "TEXCOORD_0" : 6, "NORMAL" : 7}, "indices" : 4, "material" : 1, "mode" : 4}]}, {"primitives" : [{"attributes" : {"POSITION" : 9, "TEXCOORD_0" : 10, "NORMAL" : 11}, "indices" : 8, "material" : 2, "mode" : 4}]}], "nodes" : [{"matrix" : [1, 0, 0, 0, 0, 1, 0, 0, 0, 0, 1, 0, 0.058207638561725616, 0.031463585793972015, -0.023560335859656334, 1], "mesh" : 0, "name" : "G_router_cable_lp"}, {"mesh" : 1, "name" : "G_router"}], "scene" : 0, "scenes" : [{"nodes" : [0, 1]}]}