{"extensionsUsed" : ["KHR_materials_specular", "KHR_materials_ior"], "accessors" : [{"bufferView" : 0, "byteOffset" : 0, "componentType" : 5123, "count" : 240, "type" : "SCALAR", "max" : [239], "min" : [0]}, {"bufferView" : 1, "byteOffset" : 0, "componentType" : 5126, "count" : 240, "type" : "VEC3", "max" : [0.9999998807907104, 0.9999997615814209, 1.0000001192092896], "min" : [-0.9999998807907104, -0.9999997615814209, -1], "name" : "POSITION"}, {"bufferView" : 1, "byteOffset" : 12, "componentType" : 5126, "count" : 240, "type" : "VEC2", "max" : [0.65625, 1.0000001192092896], "min" : [0.3437499701976776, 0], "name" : "TEXCOORD_0"}, {"bufferView" : 1, "byteOffset" : 20, "componentType" : 5126, "count" : 240, "type" : "VEC3", "max" : [1.0000044107437134, 1.0000044107437134, 1.0000044107437134], "min" : [-1.0000044107437134, -1.0000044107437134, -1.0000044107437134], "name" : "NORMAL"}, {"bufferView" : 0, "byteOffset" : 480, "componentType" : 5123, "count" : 8820, "type" : "SCALAR", "max" : [7234], "min" : [0]}, {"bufferView" : 2, "byteOffset" : 0, "componentType" : 5126, "count" : 7235, "type" : "VEC3", "max" : [0.16048434376716614, 0.34127330780029297, 0.16048434376716614], "min" : [-0.16048434376716614, 0.00240328349173069, -0.16048434376716614], "name" : "POSITION"}, {"bufferView" : 2, "byteOffset" : 12, "componentType" : 5126, "count" : 7235, "type" : "VEC2", "max" : [0.9896183609962463, 0.9999833106994629], "min" : [0.015935495495796204, 0.01544189453125], "name" : "TEXCOORD_0"}, {"bufferView" : 2, "byteOffset" : 20, "componentType" : 5126, "count" : 7235, "type" : "VEC3", "max" : [1.0000044107437134, 1.0000044107437134, 1.0000044107437134], "min" : [-1.0000044107437134, -1.0000044107437134, -1.0000044107437134], "name" : "NORMAL"}, {"bufferView" : 0, "byteOffset" : 18120, "componentType" : 5123, "count" : 96, "type" : "SCALAR", "max" : [80], "min" : [0]}, {"bufferView" : 3, "byteOffset" : 0, "componentType" : 5126, "count" : 81, "type" : "VEC3", "max" : [0.6925866007804871, 1.2342640161514282, -0.49999991059303284], "min" : [-0.6925866007804871, -0.49999991059303284, -0.6125699281692505], "name" : "POSITION"}, {"bufferView" : 3, "byteOffset" : 12, "componentType" : 5126, "count" : 81, "type" : "VEC2", "max" : [0.625, 0.75], "min" : [0.375, 0.5], "name" : "TEXCOORD_0"}, {"bufferView" : 3, "byteOffset" : 20, "componentType" : 5126, "count" : 81, "type" : "VEC3", "max" : [1.0000044107437134, 1.0000044107437134, 1.0000044107437134], "min" : [-1.0000044107437134, -0.5693840384483337, -1.0000044107437134], "name" : "NORMAL"}, {"bufferView" : 0, "byteOffset" : 18312, "componentType" : 5123, "count" : 1908, "type" : "SCALAR", "max" : [1530], "min" : [0]}, {"bufferView" : 4, "byteOffset" : 0, "componentType" : 5126, "count" : 1531, "type" : "VEC3", "max" : [0.0657268539071083, 0.0395972914993763, 0.2524820864200592], "min" : [0.019995812326669693, 0.002669669920578599, -0.0381288006901741], "name" : "POSITION"}, {"bufferView" : 4, "byteOffset" : 12, "componentType" : 5126, "count" : 1531, "type" : "VEC2", "max" : [0.728243350982666, 0.702966034412384], "min" : [0.2878831923007965, 0.3967844247817993], "name" : "TEXCOORD_0"}, {"bufferView" : 4, "byteOffset" : 20, "componentType" : 5126, "count" : 1531, "type" : "VEC3", "max" : [1.0000044107437134, 1.0000044107437134, 1.0000044107437134], "min" : [-1.0000044107437134, -1.0000044107437134, -1.0000044107437134], "name" : "NORMAL"}], "asset" : {"generator" : "Aspose.3D 23.6.0", "version" : "2.0"}, "buffers" : [{"uri" : "data:application/octet-stream;base64,", "byteLength" : 376196}], "bufferViews" : [{"buffer" : 0, "byteOffset" : 0, "byteLength" : 22128, "target" : 34963}, {"buffer" : 0, "byteOffset" : 22132, "byteLength" : 7680, "byteStride" : 32, "target" : 34962}, {"buffer" : 0, "byteOffset" : 29816, "byteLength" : 282240, "byteStride" : 32, "target" : 34962}, {"buffer" : 0, "byteOffset" : 312060, "byteLength" : 3072, "byteStride" : 32, "target" : 34962}, {"buffer" : 0, "byteOffset" : 315136, "byteLength" : 61056, "byteStride" : 32, "target" : 34962}], "images" : [{"uri" : "data:image/png;base64,"}, {"uri" : "data:image/png;base64,"}, {"uri" : "data:image/png;base64,"}, {"uri" : "data:image/png;base64,"}, {"uri" : "data:image/png;base64,"}, {"uri" : "data:image/png;base64,"}], "materials" : [{"name" : "lambert1.001", "pbrMetallicRoughness" : {"baseColorFactor" : [1, 1, 1, 1], "baseColorTexture" : {"index" : 3, "texCoord" : 0}, "metallicFactor" : 1, "roughnessFactor" : 1, "metallicRoughnessTexture" : {"index" : 2, "texCoord" : 0}}, "normalTexture" : {"index" : 1, "texCoord" : 0, "scale" : 1}, "occlusionTexture" : {"index" : 2, "texCoord" : 0, "strength" : 0}, "emissiveTexture" : {"index" : 0, "texCoord" : 0}, "emissiveFactor" : [1, 1, 1], "alphaMode" : "OPAQUE", "doubleSided" : false}, {"name" : "M_router", "pbrMetallicRoughness" : {"baseColorFactor" : [1, 1, 1, 1], "baseColorTexture" : {"index" : 5, "texCoord" : 0}, "metallicFactor" : 0, "roughnessFactor" : 0.5}, "normalTexture" : {"index" : 4, "texCoord" : 0, "scale" : 1}, "emissiveFactor" : [0, 0, 0], "alphaMode" : "OPAQUE", "doubleSided" : true}, {"name" : "M_Metal.002", "extensions" : {"KHR_materials_specular" : {"specularColorFactor" : [2.371357614441398, 2.371357614441398, 2.371357614441398]}, "KHR_materials_ior" : {"ior" : 1.4500000476837158}}, "pbrMetallicRoughness" : {"baseColorFactor" : [0.30683633685112, 0.30683633685112, 0.30683633685112, 1], "metallicFactor" : 0.8728520274162292, "roughnessFactor" : 0.24570447206497192}, "emissiveFactor" : [0.0024184221401810646, 1, 0.00707769813016057], "alphaMode" : "OPAQUE", "doubleSided" : true}, {"name" : "M_cable.002", "extensions" : {"KHR_materials_specular" : {"specularColorFactor" : [2.371357614441398, 2.371357614441398, 2.371357614441398]}, "KHR_materials_ior" : {"ior" : 1.4500000476837158}}, "pbrMetallicRoughness" : {"baseColorFactor" : [0.029761485755443573, 0.029761485755443573, 0.029761485755443573, 1], "metallicFactor" : 0, "roughnessFactor" : 0.5}, "emissiveFactor" : [0.004762586671859026, 1, 0], "alphaMode" : "OPAQUE", "doubleSided" : true}], "meshes" : [{"primitives" : [{"attributes" : {"POSITION" : 1, "TEXCOORD_0" : 2, "NORMAL" : 3}, "indices" : 0, "material" : 0, "mode" : 4}]}, {"primitives" : [{"attributes" : {"POSITION" : 5, "TEXCOORD_0" : 6, "NORMAL" : 7}, "indices" : 4, "material" : 1, "mode" : 4}]}, {"primitives" : [{"attributes" : {"POSITION" : 9, "TEXCOORD_0" : 10, "NORMAL" : 11}, "indices" : 8, "material" : 2, "mode" : 4}]}, {"primitives" : [{"attributes" : {"POSITION" : 13, "TEXCOORD_0" : 14, "NORMAL" : 15}, "indices" : 12, "material" : 3, "mode" : 4}]}], "nodes" : [{"matrix" : [1, 0, 0, 0, 0, 1, 0, 0, 0, 0, 1, 0, -3.814697265625E-06, 0.28903916478157043, 5.782998414360918E-06, 1], "mesh" : 0, "name" : "pCylinder1.002"}, {"children" : [0], "matrix" : [1, 0, 0, 0, 0, 1, 0, 0, 0, 0, 1, 0, -7.62939453125E-06, 3.3619617170188576E-06, 5.939074981142767E-06, 1], "name" : "pCylinder1.001"}, {"children" : [1], "matrix" : [-0.002971785143017769, 0, 0, 0, 0, -1.6047358177370803E-09, 0.0029717843428057997, 0, 0, -0.0029717843428057997, -1.6047358177370803E-09, 0, 0.12836900353431702, 0.31739863753318787, -0.15864792466163635, 1], "name" : "RootNode.001"}, {"mesh" : 1, "name" : "G_router"}, {"matrix" : [-0.022441620289862334, -2.8026547716605857E-11, -0.0007380965149202883, 0, 0.0007380965149202833, 1.0977353557846574E-09, -0.022441619494171165, 0, 9.025184570254644E-11, -0.022453755935995637, -2.6871732169637854E-09, 0, -0.00800000037997961, 0.0019919462502002716, 0.011807265691459179, 1], "mesh" : 2, "name" : "pCube1"}, {"mesh" : 3, "name" : "G_router_cable_lp.001"}, {"children" : [5], "matrix" : [-0.015663743019104004, 0, 0, 0, 0, -0.015663743019104004, 0, 0, 0, 0, -0.015663743019104004, 0, 0, 0, 0, 1], "name" : "Armature"}], "samplers" : [{"magFilter" : 9729, "minFilter" : 9987, "wrapS" : 10497, "wrapT" : 10497}, {"magFilter" : 9729, "minFilter" : 9987, "wrapS" : 10497, "wrapT" : 10497}, {"magFilter" : 9729, "minFilter" : 9987, "wrapS" : 10497, "wrapT" : 10497}, {"magFilter" : 9729, "minFilter" : 9987, "wrapS" : 10497, "wrapT" : 10497}, {"magFilter" : 9729, "minFilter" : 9987, "wrapS" : 10497, "wrapT" : 10497}, {"magFilter" : 9729, "minFilter" : 9987, "wrapS" : 10497, "wrapT" : 10497}], "scene" : 0, "scenes" : [{"nodes" : [2, 3, 4, 6]}], "textures" : [{"sampler" : 0, "source" : 0, "name" : ""}, {"sampler" : 1, "source" : 1, "name" : ""}, {"sampler" : 2, "source" : 2, "name" : ""}, {"sampler" : 3, "source" : 3, "name" : ""}, {"sampler" : 4, "source" : 4, "name" : ""}, {"sampler" : 5, "source" : 5, "name" : ""}]}