{"extensionsUsed" : ["KHR_materials_specular", "KHR_materials_ior"], "accessors" : [{"bufferView" : 0, "byteOffset" : 0, "componentType" : 5123, "count" : 8820, "type" : "SCALAR", "max" : [7234], "min" : [0]}, {"bufferView" : 1, "byteOffset" : 0, "componentType" : 5126, "count" : 7235, "type" : "VEC3", "max" : [0.16048434376716614, 0.34127330780029297, 0.16048434376716614], "min" : [-0.16048434376716614, 0.00240328349173069, -0.16048434376716614], "name" : "POSITION"}, {"bufferView" : 1, "byteOffset" : 12, "componentType" : 5126, "count" : 7235, "type" : "VEC2", "max" : [0.9896183609962463, 0.9999833106994629], "min" : [0.015935495495796204, 0.01544189453125], "name" : "TEXCOORD_0"}, {"bufferView" : 1, "byteOffset" : 20, "componentType" : 5126, "count" : 7235, "type" : "VEC3", "max" : [1.0000044107437134, 1.0000044107437134, 1.0000044107437134], "min" : [-1.0000044107437134, -1.0000044107437134, -1.0000044107437134], "name" : "NORMAL"}, {"bufferView" : 0, "byteOffset" : 17640, "componentType" : 5123, "count" : 1908, "type" : "SCALAR", "max" : [1530], "min" : [0]}, {"bufferView" : 2, "byteOffset" : 0, "componentType" : 5126, "count" : 1531, "type" : "VEC3", "max" : [0.007519212085753679, 0.00813370756804943, 0.2530039846897125], "min" : [-0.03821182623505592, -0.0287939440459013, -0.037606894969940186], "name" : "POSITION"}, {"bufferView" : 2, "byteOffset" : 12, "componentType" : 5126, "count" : 1531, "type" : "VEC2", "max" : [0.728243350982666, 0.702966034412384], "min" : [0.2878831923007965, 0.3967844247817993], "name" : "TEXCOORD_0"}, {"bufferView" : 2, "byteOffset" : 20, "componentType" : 5126, "count" : 1531, "type" : "VEC3", "max" : [1.0000044107437134, 1.0000044107437134, 1.0000044107437134], "min" : [-1.0000044107437134, -1.0000044107437134, -1.0000044107437134], "name" : "NORMAL"}, {"bufferView" : 0, "byteOffset" : 21456, "componentType" : 5123, "count" : 372, "type" : "SCALAR", "max" : [311], "min" : [0]}, {"bufferView" : 3, "byteOffset" : 0, "componentType" : 5126, "count" : 312, "type" : "VEC3", "max" : [1, 1, 1], "min" : [-1, -1, -1], "name" : "POSITION"}, {"bufferView" : 3, "byteOffset" : 12, "componentType" : 5126, "count" : 312, "type" : "VEC2", "max" : [1, 0.9900000095367432], "min" : [0, 0], "name" : "TEXCOORD_0"}, {"bufferView" : 3, "byteOffset" : 20, "componentType" : 5126, "count" : 312, "type" : "VEC3", "max" : [0.9951908588409424, 1.0000044107437134, 0.9951908588409424], "min" : [-0.9951908588409424, -1.0000044107437134, -0.9951908588409424], "name" : "NORMAL"}, {"bufferView" : 0, "byteOffset" : 22200, "componentType" : 5123, "count" : 96, "type" : "SCALAR", "max" : [80], "min" : [0]}, {"bufferView" : 4, "byteOffset" : 0, "componentType" : 5126, "count" : 81, "type" : "VEC3", "max" : [0.6925866007804871, 1.2342640161514282, -0.49999991059303284], "min" : [-0.6925866007804871, -0.49999991059303284, -0.6125699281692505], "name" : "POSITION"}, {"bufferView" : 4, "byteOffset" : 12, "componentType" : 5126, "count" : 81, "type" : "VEC2", "max" : [0.625, 0.75], "min" : [0.375, 0.5], "name" : "TEXCOORD_0"}, {"bufferView" : 4, "byteOffset" : 20, "componentType" : 5126, "count" : 81, "type" : "VEC3", "max" : [1.0000044107437134, 1.0000044107437134, 1.0000044107437134], "min" : [-1.0000044107437134, -0.5693840384483337, -1.0000044107437134], "name" : "NORMAL"}], "asset" : {"generator" : "Aspose.3D 23.6.0", "version" : "2.0"}, "buffers" : [{"uri" : "data:application/octet-stream;base64,", "byteLength" : 380684}], "bufferViews" : [{"buffer" : 0, "byteOffset" : 0, "byteLength" : 22392, "target" : 34963}, {"buffer" : 0, "byteOffset" : 22396, "byteLength" : 282240, "byteStride" : 32, "target" : 34962}, {"buffer" : 0, "byteOffset" : 304640, "byteLength" : 61056, "byteStride" : 32, "target" : 34962}, {"buffer" : 0, "byteOffset" : 365700, "byteLength" : 11904, "byteStride" : 32, "target" : 34962}, {"buffer" : 0, "byteOffset" : 377608, "byteLength" : 3072, "byteStride" : 32, "target" : 34962}], "images" : [{"uri" : "data:image/png;base64,"}, {"uri" : "data:image/png;base64,"}], "materials" : [{"name" : "M_router", "pbrMetallicRoughness" : {"baseColorFactor" : [1, 1, 1, 1], "baseColorTexture" : {"index" : 1, "texCoord" : 0}, "metallicFactor" : 0, "roughnessFactor" : 0.5}, "normalTexture" : {"index" : 0, "texCoord" : 0, "scale" : 1}, "emissiveFactor" : [0, 0, 0], "alphaMode" : "OPAQUE", "doubleSided" : true}, {"name" : "M_cable", "pbrMetallicRoughness" : {"baseColorFactor" : [0.029761485755443573, 0.029761485755443573, 0.029761485755443573, 1], "metallicFactor" : 0, "roughnessFactor" : 0.5}, "emissiveFactor" : [0, 0, 0], "alphaMode" : "OPAQUE", "doubleSided" : true}, {"name" : "M_Metal.002", "extensions" : {"KHR_materials_specular" : {"specularColorFactor" : [2.371357614441398, 2.371357614441398, 2.371357614441398]}, "KHR_materials_ior" : {"ior" : 1.4500000476837158}}, "pbrMetallicRoughness" : {"baseColorFactor" : [0.30683633685112, 0.30683633685112, 0.30683633685112, 1], "metallicFactor" : 0.8728520274162292, "roughnessFactor" : 0.24570447206497192}, "emissiveFactor" : [0.0024184221401810646, 1, 0.00707769813016057], "alphaMode" : "OPAQUE", "doubleSided" : true}, {"name" : "M_Metal.002", "extensions" : {"KHR_materials_specular" : {"specularColorFactor" : [2.371357614441398, 2.371357614441398, 2.371357614441398]}, "KHR_materials_ior" : {"ior" : 1.4500000476837158}}, "pbrMetallicRoughness" : {"baseColorFactor" : [0.30683633685112, 0.30683633685112, 0.30683633685112, 1], "metallicFactor" : 0.8728520274162292, "roughnessFactor" : 0.24570447206497192}, "emissiveFactor" : [0.0024184221401810646, 1, 0.00707769813016057], "alphaMode" : "OPAQUE", "doubleSided" : true}], "meshes" : [{"primitives" : [{"attributes" : {"POSITION" : 1, "TEXCOORD_0" : 2, "NORMAL" : 3}, "indices" : 0, "material" : 0, "mode" : 4}]}, {"primitives" : [{"attributes" : {"POSITION" : 5, "TEXCOORD_0" : 6, "NORMAL" : 7}, "indices" : 4, "material" : 1, "mode" : 4}]}, {"primitives" : [{"attributes" : {"POSITION" : 9, "TEXCOORD_0" : 10, "NORMAL" : 11}, "indices" : 8, "material" : 2, "mode" : 4}]}, {"primitives" : [{"attributes" : {"POSITION" : 13, "TEXCOORD_0" : 14, "NORMAL" : 15}, "indices" : 12, "material" : 3, "mode" : 4}]}], "nodes" : [{"mesh" : 0, "name" : "G_router"}, {"matrix" : [1, 0, 0, 0, 0, 1, 0, 0, 0, 0, 1, 0, 0.058207638561725616, 0.031463585793972015, -0.023021738976240158, 1], "mesh" : 1, "name" : "Cable_anim"}, {"matrix" : [-0.0013963369419798255, 0, 0, 0, 0, 1.8761023479224185E-10, -0.0013963371295900604, 0, 0, 0.0013963371295900604, 1.8761023479224185E-10, 0, -0.04782383143901825, 0.0330972895026207, -0.04076937586069107, 1], "mesh" : 2, "name" : "ResetButtonAnim"}, {"matrix" : [-0.012213058896851956, -1.6931956494953786E-11, -0.0004016829163660834, 0, -0.0004016829163660834, 5.974036803131829E-10, 0.012213058464354274, 0, 1.6931956494953786E-11, 0.012219662279254528, -1.462398954196223E-09, 0, -0.0480317696928978, 0.03993760049343109, -0.023925110697746277, 1], "mesh" : 3, "name" : "ResetArrow_anim"}], "samplers" : [{"magFilter" : 9729, "minFilter" : 9987, "wrapS" : 10497, "wrapT" : 10497}, {"magFilter" : 9729, "minFilter" : 9987, "wrapS" : 10497, "wrapT" : 10497}], "scene" : 0, "scenes" : [{"nodes" : [0, 1, 2, 3]}], "textures" : [{"sampler" : 0, "source" : 0, "name" : ""}, {"sampler" : 1, "source" : 1, "name" : ""}]}